<svg width="60" height="60" viewBox="0 0 60 60" fill="none" xmlns="http://www.w3.org/2000/svg">
<path d="M22.707 42.5508C23.906 45.3968 26.7225 47.4008 29.9993 47.4008C33.2761 47.4008 36.0925 45.397 37.2916 42.551C35.054 43.6132 32.5894 44.2367 29.9993 44.2367C27.409 44.2367 24.9446 43.613 22.707 42.5508Z" fill="#EE5007"/>
<path d="M47.6603 42.7878C45.2206 42.3888 42.9719 42.0883 40.8144 41.832C39.7359 46.816 35.3017 50.5666 30 50.5666C24.6983 50.5666 20.2643 46.8162 19.1858 41.8322C17.0282 42.0887 14.7794 42.3894 12.3397 42.7894C6.98946 43.6668 3 48.26 3 53.7091V55.4182C3 56.2926 3.70759 57.0002 4.58203 57.0002H55.418C56.2924 57.0002 57 56.2926 57 55.4182V53.7091C57 48.26 53.0105 43.6668 47.6603 42.7878Z" fill="#EE5007"/>
<path d="M22.9644 14.3465C24.6052 13.5262 26.4621 12.5977 30.0001 12.5977C33.538 12.5977 35.3966 13.5277 37.0358 14.3465C38.6859 15.174 40.3273 15.9455 44.0719 15.6966C43.3054 9.15357 38.1338 3.73712 31.5821 3V7.85156C31.5821 8.726 30.8745 9.43359 30.0001 9.43359C29.1256 9.43359 28.4181 8.726 28.4181 7.85156V3C21.8643 3.73733 16.6918 9.15642 15.9277 15.702C19.7341 15.9502 21.3712 15.1447 22.9644 14.3465Z" fill="#EE5007"/>
<path d="M22.9277 34.7461C23.8015 34.7461 24.5098 34.0378 24.5098 33.164C24.5098 32.2903 23.8015 31.582 22.9277 31.582C22.054 31.582 21.3457 32.2903 21.3457 33.164C21.3457 34.0378 22.054 34.7461 22.9277 34.7461Z" fill="#EE5007"/>
<path d="M44.2383 19.1962C39.633 19.5083 37.6013 18.1663 35.6205 17.1769C34.1019 16.4168 32.7902 15.7617 30 15.7617C27.2098 15.7617 25.8981 16.4168 24.3795 17.1769C22.5858 18.0745 20.8385 18.9474 17.4086 18.9474C16.8997 18.9474 16.3501 19.2372 15.7617 19.1961C13.9201 19.8497 12.5977 21.6093 12.5977 23.6719C12.5977 25.7575 13.9494 27.5326 15.8235 28.1677C16.0917 31.0469 17.2468 33.6563 18.9758 35.7823C18.4764 35.0311 18.1822 34.1319 18.1822 33.164C18.1822 30.5469 20.3112 28.418 22.9283 28.418H29.9841C30.8585 28.418 31.5661 29.1255 31.5661 30C31.5661 30.8744 30.8585 31.582 29.9841 31.582H27.383C27.5603 32.0793 27.6744 32.6067 27.6744 33.164C27.6744 35.7811 25.5454 37.9101 22.9283 37.9101C21.7569 37.9101 20.697 37.4675 19.8684 36.7615C22.4544 39.401 26.0215 41.0742 30 41.0742C37.4019 41.0742 43.5028 35.3981 44.1765 28.1677C46.0505 27.5326 47.4023 25.7575 47.4023 23.6719C47.4023 21.6093 46.0799 19.8497 44.2383 19.1962ZM25.2539 23.6719C24.3802 23.6719 23.6719 22.9635 23.6719 22.0898C23.6719 21.2159 24.3802 20.5078 25.2539 20.5078C26.1276 20.5078 26.8359 21.2159 26.8359 22.0898C26.8359 22.9635 26.1276 23.6719 25.2539 23.6719ZM34.7461 23.6719C33.8724 23.6719 33.1641 22.9635 33.1641 22.0898C33.1641 21.2159 33.8724 20.5078 34.7461 20.5078C35.6198 20.5078 36.3281 21.2159 36.3281 22.0898C36.3281 22.9635 35.6198 23.6719 34.7461 23.6719Z" fill="#EE5007"/>
</svg>
