<svg width="60" height="60" viewBox="0 0 60 60" fill="none" xmlns="http://www.w3.org/2000/svg">
<g clip-path="url(#clip0_101_1833)">
<mask id="mask0_101_1833" style="mask-type:luminance" maskUnits="userSpaceOnUse" x="0" y="0" width="60" height="60">
<path d="M60 0H0V60H60V0Z" fill="white"/>
</mask>
<g mask="url(#mask0_101_1833)">
<path fill-rule="evenodd" clip-rule="evenodd" d="M24.5035 15.1478L20.8714 12.5335C20.5157 12.2681 20.2522 11.8979 20.1178 11.475C19.9833 11.0521 19.9848 10.5976 20.1219 10.1756C20.2591 9.75354 20.525 9.38506 20.8824 9.12192C21.2397 8.85878 21.6705 8.71422 22.1142 8.70853H26.625L27.9856 4.44432C28.1284 4.02408 28.3989 3.65896 28.7594 3.4C29.1199 3.14104 29.5522 3.0012 29.9961 3.00001C30.4399 2.99882 30.873 3.13635 31.2349 3.39337C31.5967 3.6504 31.8692 4.01406 32.0142 4.43353C32.0097 4.44241 33.4044 8.72246 33.4071 8.72996L37.8855 8.70853C38.3293 8.71417 38.7601 8.8587 39.1175 9.12183C39.4749 9.38495 39.7408 9.75344 39.878 10.1755C40.0152 10.5976 40.0166 11.052 39.8822 11.475C39.7478 11.8979 39.4842 12.2681 39.1285 12.5335L35.4857 15.18L36.8892 19.4335C37.031 19.8588 37.0326 20.3183 36.8937 20.7446C36.7548 21.1708 36.4829 21.5412 36.1178 21.8014C35.7602 22.0725 35.3237 22.2193 34.875 22.2193C34.4262 22.2193 33.9897 22.0725 33.6321 21.8014L29.9785 19.155L26.3678 21.8014C26.0091 22.07 25.5731 22.2152 25.125 22.2152C24.6768 22.2152 24.2408 22.07 23.8821 21.8014C23.517 21.5412 23.2451 21.1708 23.1062 20.7446C22.9673 20.3183 22.9689 19.8588 23.1107 19.4335L24.5035 15.1478ZM49.6285 30.4795C57.4437 30.2328 57.4429 18.9036 49.6284 18.651C41.8107 18.8975 41.8136 30.2411 49.6285 30.4795ZM30.3 25.927C28.1969 25.9291 26.1803 26.7648 24.6922 28.2509C23.204 29.7371 22.3656 31.7525 22.3607 33.8556C22.7346 44.3629 37.8668 44.3603 38.2393 33.8555C38.2343 31.7524 37.3959 29.737 35.9078 28.2509C34.4196 26.7648 32.4031 25.9291 30.3 25.927ZM37.1143 41.2687C35.2555 42.98 32.8213 43.93 30.2947 43.93C27.7681 43.93 25.3338 42.98 23.475 41.2687C22.3058 41.8552 21.224 42.6016 20.2607 43.4865C18.9389 44.6564 17.8794 46.0927 17.1519 47.7011C16.4243 49.3094 16.0452 51.0534 16.0393 52.8186V55.0365C16.0414 55.8003 16.3457 56.5321 16.8858 57.0722C17.4258 57.6123 18.1577 57.9166 18.9215 57.9186H41.6786C42.4423 57.9166 43.1742 57.6123 43.7143 57.0722C44.2543 56.5321 44.5587 55.8003 44.5607 55.0365C45.0243 49.0877 42.5544 44.0216 37.1143 41.2687ZM50.7761 32.522C52.592 32.2593 54.265 31.3881 55.5214 30.0509C56.872 30.8841 57.9905 32.0445 58.7733 33.4248C59.5562 34.8051 59.9781 36.3607 60 37.9474V39.5116C60.0001 39.8198 59.9395 40.125 59.8216 40.4097C59.7037 40.6944 59.5309 40.9531 59.313 41.171C59.0951 41.3889 58.8363 41.5618 58.5516 41.6796C58.2669 41.7975 57.9617 41.8582 57.6536 41.8581H41.5929C40.9711 41.8564 40.3752 41.6087 39.9355 41.169C39.4958 40.7293 39.2481 40.1334 39.2465 39.5116C39.0459 37.4662 39.4363 35.4061 40.3714 33.5759C41.1902 32.1418 42.3493 30.9312 43.7464 30.0509C44.2618 30.6212 44.8617 31.1089 45.525 31.4972C47.1089 32.4234 48.9602 32.7847 50.7761 32.522ZM20.7536 37.9474V39.5116C20.7519 40.1334 20.5042 40.7293 20.0645 41.169C19.6248 41.6087 19.0289 41.8564 18.4071 41.8581H2.34643C2.03826 41.8582 1.7331 41.7975 1.44838 41.6796C1.16365 41.5618 0.90495 41.3889 0.687045 41.171C0.469141 40.9531 0.296308 40.6944 0.178422 40.4097C0.0605361 40.125 -9.27001e-05 39.8198 1.06385e-07 39.5116V37.9474C0.018232 36.3587 0.439738 34.8006 1.22497 33.4194C2.01021 32.0383 3.13344 30.8792 4.48928 30.0509C5.24061 30.8619 6.15139 31.509 7.16451 31.9514C8.17763 32.3939 9.27125 32.6223 10.3768 32.6223C11.4823 32.6223 12.5759 32.3939 13.5891 31.9514C14.6022 31.509 15.5129 30.8619 16.2643 30.0509C17.6175 30.8821 18.7386 32.0418 19.5235 33.4224C20.3083 34.8029 20.7315 36.3595 20.7536 37.9474ZM10.3714 30.4795C18.1882 30.24 18.1875 18.8963 10.3713 18.651C2.55519 18.9047 2.5581 30.2339 10.3714 30.4795Z" fill="#EE5007"/>
</g>
</g>
<defs>
<clipPath id="clip0_101_1833">
<rect width="60" height="60" fill="white"/>
</clipPath>
</defs>
</svg>
