<svg width="60" height="60" viewBox="0 0 60 60" fill="none" xmlns="http://www.w3.org/2000/svg">
<g clip-path="url(#clip0_101_1815)">
<path fill-rule="evenodd" clip-rule="evenodd" d="M43.5357 16.3164L30.2786 22.1815C30.1073 22.2528 29.8933 22.2528 29.722 22.1815L16.4648 16.3164V24.322C25.4409 28.6888 34.5454 28.6888 43.5357 24.322V16.3164Z" fill="#EE5007"/>
<path fill-rule="evenodd" clip-rule="evenodd" d="M12.5261 45.2572L9.78619 43.6875L7.06055 45.2572V48.4253L9.78619 50.0093L12.5261 48.4253V45.2572Z" fill="#EE5007"/>
<path fill-rule="evenodd" clip-rule="evenodd" d="M16.4648 25.832V30.9836C25.4409 35.3503 34.5454 35.3503 43.5357 30.9836V25.832C39.0406 27.9154 34.5169 28.9715 30.0074 28.9715C25.4837 28.9715 20.96 27.9154 16.4648 25.832Z" fill="#EE5007"/>
<path fill-rule="evenodd" clip-rule="evenodd" d="M10.4707 42.4892L13.2106 44.0732L17.9056 41.3618C16.2645 38.9358 13.5674 37.2805 10.4707 37.0664V42.4892Z" fill="#EE5007"/>
<path fill-rule="evenodd" clip-rule="evenodd" d="M1.67969 52.3208C3.32079 54.7468 6.01789 56.4021 9.11455 56.6162V51.1934L6.37464 49.6094L1.67969 52.3208Z" fill="#EE5007"/>
<path fill-rule="evenodd" clip-rule="evenodd" d="M5.69031 45.2544L0.995358 42.543C-0.331786 45.2401 -0.331786 48.4224 0.995358 51.1338L5.69031 48.4224V45.2544Z" fill="#EE5007"/>
<path fill-rule="evenodd" clip-rule="evenodd" d="M10.4707 51.1934V56.6162C13.5674 56.4021 16.2645 54.7468 17.9056 52.3208L13.2106 49.6094L10.4707 51.1934Z" fill="#EE5007"/>
<path fill-rule="evenodd" clip-rule="evenodd" d="M9.10088 42.4892V37.0664C6.00421 37.2805 3.30712 38.9358 1.66602 41.3618L6.36097 44.0732L9.10088 42.4892Z" fill="#EE5007"/>
<path fill-rule="evenodd" clip-rule="evenodd" d="M44.293 54.6475C45.7628 55.7749 47.5752 56.4884 49.5302 56.6168V37.0664C47.5752 37.2091 45.7628 37.9227 44.293 39.0357C48.517 43.3168 48.517 50.3664 44.293 54.6475Z" fill="#EE5007"/>
<path fill-rule="evenodd" clip-rule="evenodd" d="M56.1356 39.0474C54.6658 37.92 52.8535 37.2065 50.8984 37.0781V56.6285C52.8535 56.4858 54.6658 55.7722 56.1356 54.6592C51.8973 50.3638 51.8973 43.3142 56.1356 39.0474Z" fill="#EE5007"/>
<path fill-rule="evenodd" clip-rule="evenodd" d="M57.1644 39.9453C53.3827 43.7127 53.3827 49.9631 57.1644 53.7305C60.946 49.906 60.946 43.7698 57.1644 39.9453Z" fill="#EE5007"/>
<path fill-rule="evenodd" clip-rule="evenodd" d="M24.4277 43.6291V55.6447C28.1523 57.0004 31.8483 57.0004 35.5586 55.6447V43.6291C31.8483 42.2591 28.1523 42.2591 24.4277 43.6291ZM30.6924 48.0814V48.9519H31.9339V48.0814C31.9339 47.1824 33.3039 47.1824 33.3039 48.0814V48.9519H34.0174C34.9165 48.9519 34.9165 50.3219 34.0174 50.3219H33.3039V51.1924C33.3039 52.0914 31.9339 52.0914 31.9339 51.1924V50.3219H30.6924V51.1924C30.6924 52.0914 29.3225 52.0914 29.3225 51.1924V50.3219H28.0809V51.1924C28.0809 51.5777 27.767 51.8774 27.396 51.8774C27.0107 51.8774 26.711 51.5777 26.711 51.1924V50.3219H25.9975C25.0984 50.3219 25.0984 48.9519 25.9975 48.9519H26.711V48.0814C26.711 47.1824 28.0809 47.1824 28.0809 48.0814V48.9519H29.3225V48.0814C29.3225 47.1681 30.6924 47.1681 30.6924 48.0814Z" fill="#EE5007"/>
<path fill-rule="evenodd" clip-rule="evenodd" d="M39.141 45.3395C38.3989 44.8971 37.6712 44.5118 36.9434 44.1836V55.0719C38.2277 54.4868 39.512 53.7447 40.7964 52.8457C39.3979 50.648 38.7842 48.008 39.141 45.3395Z" fill="#EE5007"/>
<path fill-rule="evenodd" clip-rule="evenodd" d="M18.6051 42.543L13.9102 45.2544V48.4224L18.6051 51.1338C19.918 48.4367 19.918 45.2544 18.6051 42.543Z" fill="#EE5007"/>
<path fill-rule="evenodd" clip-rule="evenodd" d="M43.2493 39.9453C39.4533 43.7698 39.4533 49.906 43.2493 53.7305C47.0309 49.9774 47.0309 43.7127 43.2493 39.9453Z" fill="#EE5007"/>
<path fill-rule="evenodd" clip-rule="evenodd" d="M19.2051 52.8457C20.4894 53.7447 21.788 54.501 23.0581 55.0719V44.1836C22.3303 44.5118 21.5882 44.8971 20.8604 45.3395C21.2172 48.008 20.6178 50.648 19.2051 52.8457Z" fill="#EE5007"/>
<path fill-rule="evenodd" clip-rule="evenodd" d="M49.6431 12.1189L30.0071 3.41406L10.3711 12.1189L16.0507 14.6305C16.065 14.6305 16.0792 14.6448 16.0792 14.6448L30.0071 20.8096L46.9032 13.3319V20.5955C46.9032 21.3519 47.5169 21.9655 48.2732 21.9655C49.0295 21.9655 49.6431 21.3519 49.6431 20.5955V12.1189Z" fill="#EE5007"/>
</g>
<defs>
<clipPath id="clip0_101_1815">
<rect width="60" height="60" fill="white"/>
</clipPath>
</defs>
</svg>
