<svg width="60" height="60" viewBox="0 0 60 60" fill="none" xmlns="http://www.w3.org/2000/svg">
<path fill-rule="evenodd" clip-rule="evenodd" d="M48.1822 6.36257C48.1822 8.72233 46.2692 10.6353 43.9095 10.6353C41.5497 10.6353 39.6367 8.72233 39.6367 6.36257C39.6367 4.00281 41.5497 2.08984 43.9095 2.08984C46.2692 2.08984 48.1822 4.00281 48.1822 6.36257ZM53.1822 42.5444L58.8186 53.9989C59.4549 55.2716 58.9095 56.908 57.6368 57.6353C56.2731 58.2716 54.6368 57.7262 54.0004 56.3626L47.8186 43.908C47.4549 43.1807 47.4549 42.3626 47.7277 41.6353L51.2731 33.3626C50.2731 32.7262 49.4549 31.6353 49.2731 30.2716C48.8186 26.8171 47.4549 24.2716 46.1822 22.4535C47.8298 20.0213 48.6649 17.8599 48.9212 17.1966C48.9619 17.0914 48.9879 17.0238 49.0004 16.9989C49.4549 15.5444 48.7277 13.9989 47.2731 13.5444C45.8186 13.0898 44.2731 13.908 43.8186 15.2716C43.8186 15.2716 43.4549 16.4535 42.5459 17.9989C41.9095 16.4535 42.0913 14.7262 43.1822 13.3626C44.8186 11.4535 47.6368 11.1807 49.5459 12.7262C49.9095 12.9989 56.7277 18.6353 58.1822 28.908C58.4395 30.516 58.1507 31.1684 56.3175 35.3086C55.5598 37.0199 54.5382 39.3273 53.1822 42.5444ZM29.7277 20.9992C32.1376 20.9992 34.0913 19.0456 34.0913 16.6356C34.0913 14.2256 32.1376 12.2719 29.7277 12.2719C27.3177 12.2719 25.364 14.2256 25.364 16.6356C25.364 19.0456 27.3177 20.9992 29.7277 20.9992ZM10.8186 35.9989C10.8186 38.0898 9.09128 39.817 7.00037 39.817C4.90946 39.817 3.2731 38.0898 3.18219 35.908C3.18219 34.5443 4.00037 33.2716 5.09128 32.6352L5.18219 32.7261C5.72765 33.1807 6.36401 33.4534 7.00037 33.4534C7.72765 33.4534 8.36401 33.1807 8.90946 32.7261C10.0913 33.3625 10.8186 34.6352 10.8186 35.9989ZM1.09129 52.4536C0.545837 51.09 1.1822 49.4536 2.54584 48.9082C5.00038 47.8173 7.1822 46.5445 9.00038 44.9082L14.7277 46.8173C12.0004 49.8173 8.63675 52.1809 4.63675 53.9082C3.27311 54.4536 1.63675 53.9082 1.09129 52.4536ZM35.2731 35.9992C34.1822 36.9083 31.1822 38.9992 29.8186 38.9992C28.8186 38.9992 27.8186 38.4538 27.364 37.4538C27.0004 36.7265 27.0004 35.9083 27.2731 35.2719C25.5459 35.9992 23.0913 36.6356 19.7277 36.6356C18.2731 36.6356 16.6368 36.5447 14.8186 36.272C13.6368 39.4538 11.9095 42.0901 9.72766 44.181L18.0913 46.9992L22.9095 40.0901L30.0004 43.4538L36.8186 37.9992C36.364 37.3629 35.8186 36.6356 35.2731 35.9992ZM30.7277 51.8174C32.4549 47.9992 33.1822 44.8174 32.7277 42.5446L37.2731 38.8174C39.0004 42.7265 38.4549 47.7265 35.6368 53.9992C35.0913 55.3628 33.4549 55.9992 32.0913 55.3628C30.7277 54.8174 30.0913 53.181 30.7277 51.8174ZM8.36398 32.09C8.00035 32.4537 7.45489 32.6355 7.00035 32.6355C6.63671 32.6355 6.18217 32.4537 5.90944 32.181C5.18217 31.5446 5.18217 30.3628 5.81853 29.6355C12.4549 22.4537 20.4549 20.2719 22.1822 19.9082C22.2276 19.9082 22.2731 19.8855 22.3185 19.8628C22.364 19.84 22.4094 19.8173 22.4549 19.8173C22.6106 19.789 22.7641 19.7607 22.9158 19.7327C23.738 19.5811 24.5056 19.4395 25.2731 19.3628C26.1822 20.9082 27.9094 21.9991 29.8185 21.9991C31.0004 21.9991 32.0913 21.5446 33.0004 20.9082C33.6367 21.2719 34.2731 21.6355 34.8185 22.181C35.0913 22.3628 35.9095 23.181 36.7276 24.3628C35.8185 24.9991 34.8185 25.4537 33.7276 25.9082C32.364 26.3628 31.7276 27.8173 32.0913 29.1809L29.9094 32.5446C28.5458 33.8173 24.2731 36.7264 15.1822 35.3628C15.2516 35.1891 15.2813 35.0818 15.3066 34.9902C15.3476 34.8419 15.3773 34.7346 15.5458 34.4537L19.6367 24.4537C16.6367 25.6355 12.1822 27.9082 8.36398 32.09ZM33.7276 31.0899C32.8185 32.3626 31.2731 33.5445 28.9094 34.7263C28.0004 35.1808 27.6367 36.2717 28.0913 37.1808C28.5458 38.0899 29.6367 38.4535 30.5458 37.999C35.0913 35.7263 37.6367 33.0899 38.0004 29.999C37.1822 30.4535 36.364 30.8172 35.5458 31.1808C34.9095 31.2717 34.2731 31.2717 33.7276 31.0899ZM45.6368 23.1806C46.2731 23.9988 46.8186 25.1806 47.364 26.4534C45.5459 29.5443 43.0913 32.9988 40.6368 34.5443C39.8186 34.9988 38.7277 34.817 38.1822 33.9079C37.6368 33.0897 37.9095 31.9988 38.8186 31.4534C40.4549 30.4534 42.2731 27.9988 43.8186 25.4534C44.5458 24.6352 45.0913 23.9078 45.6368 23.1806ZM46.9095 41.0898L50.1822 33.4535C49.2731 32.6353 48.5458 31.4535 48.364 30.1807V30.0898L42.7276 38.6353C42.1822 39.5444 42.1822 40.7262 42.7276 41.5444L50.0004 52.8171C50.4549 53.4535 51.0913 53.908 51.8186 53.9989L47.0004 44.0898C46.4549 43.1807 46.4549 42.0898 46.9095 41.0898ZM48.0913 16.5447C48.364 15.6356 47.9095 14.5447 47.0004 14.2719C46.0913 13.9992 45.0004 14.4538 44.7277 15.3628C44.7277 15.4538 41.8186 23.7265 34.0004 26.7265C33.0913 27.0901 32.6368 28.0901 32.9095 29.0901C33.2731 29.9992 34.2731 30.4538 35.2731 30.181C44.6368 26.6356 48.0004 16.9992 48.0913 16.5447Z" fill="#EE5007"/>
</svg>
