<svg width="241" height="241" viewBox="0 0 241 241" fill="none" xmlns="http://www.w3.org/2000/svg">
<g clip-path="url(#clip0_98_1818)">
<path d="M114.85 0H125.41C126.984 0.206518 128.574 0.273445 130.16 0.2C137.154 0.500039 144.09 1.60739 150.83 3.5C159.316 5.70189 167.525 8.85871 175.3 12.91C192.062 21.5509 206.564 34.0027 217.641 49.265C228.718 64.5274 236.061 82.1749 239.08 100.79C239.704 104.974 240.015 109.199 240.01 113.43C240.01 113.86 239.88 114.31 240.13 114.72V125.28C239.925 126.858 239.855 128.45 239.92 130.04C239.617 137.071 238.503 144.044 236.6 150.82C234.305 159.654 230.975 168.186 226.68 176.24C219.002 190.764 208.44 203.568 195.64 213.866C182.839 224.164 168.071 231.74 152.24 236.13C145.666 238.027 138.919 239.26 132.1 239.81C126.242 240.203 120.366 240.277 114.5 240.03L107.68 239.77C100.63 239.11 93.6614 237.771 86.8698 235.77C74.8492 232.333 63.4434 227.028 53.0698 220.05C47.3805 216.204 42.028 211.882 37.0698 207.13C17.3901 188.477 4.61786 163.701 0.839826 136.85C-0.160174 129.74 -0.000174428 122.58 0.00982557 115.44C0.0697031 106.801 1.22902 98.2057 3.45983 89.86C7.92959 72.6477 16.1439 56.6343 27.5163 42.9628C38.8888 29.2913 53.139 18.2988 69.2498 10.77C80.3837 5.53671 92.273 2.09109 104.48 0.56C107.575 0.224837 110.687 0.0745706 113.8 0.11C114.15 0.11 114.52 0.23 114.85 0Z" fill="black"/>
<path d="M90.6002 81.9983C90.4184 81.8273 90.1975 81.7035 89.9569 81.6375C89.7163 81.5715 89.4632 81.5653 89.2196 81.6195C88.9761 81.6738 88.7495 81.7867 88.5596 81.9486C88.3697 82.1105 88.2223 82.3164 88.1302 82.5483C87.3002 83.9083 86.9102 83.9483 85.7402 83.0583C85.4002 82.7983 85.2502 83.0583 85.0102 83.1583C84.4678 83.4912 83.8612 83.7059 83.2302 83.7883C82.3802 83.7883 82.0602 83.2483 82.4702 82.5283C82.5857 82.3308 82.7307 82.152 82.9002 81.9983C84.9353 80.148 87.1458 78.5003 89.5002 77.0783C90.7578 76.4457 92.1937 76.2615 93.5703 76.5561C94.9468 76.8507 96.1816 77.6064 97.0702 78.6983C98.5908 80.7842 100.79 82.2762 103.29 82.9183C105.29 83.3483 107.47 83.4183 109.57 83.6483C109.99 83.6483 110.19 83.5383 110.28 83.0683L111.38 78.1883C111.492 77.8243 111.524 77.4407 111.476 77.0631C111.428 76.6855 111.3 76.3225 111.1 75.9983C110.669 75.278 110.301 74.5218 110 73.7383C109.742 73.0458 109.284 72.4458 108.684 72.0148C108.084 71.5838 107.369 71.3413 106.63 71.3183C104.63 71.0483 103.52 70.3183 103.63 68.8683C103.76 67.2183 103.43 65.5283 103.9 63.8683C104.1 63.1883 104.1 62.6583 103.41 62.2383C103.11 62.0556 102.894 61.7626 102.808 61.4223C102.722 61.0819 102.773 60.7214 102.95 60.4183C103.69 58.9124 103.965 57.2208 103.74 55.5583C103.755 54.1213 104.122 52.7099 104.81 51.4483C105.371 50.6416 105.687 49.6902 105.72 48.7083C105.66 47.9483 106.36 47.5383 106.97 47.2483C109.001 46.1792 111.239 45.5614 113.531 45.4371C115.823 45.3128 118.115 45.685 120.25 46.5283C123.61 47.8783 125.25 50.5283 125.68 54.0483C125.911 55.8486 125.777 57.6771 125.285 59.4244C124.794 61.1717 123.956 62.8021 122.82 64.2183C122.36 64.8183 122.82 65.2183 123.42 65.5583C127.157 67.4416 130.598 69.8642 133.63 72.7483C135.458 74.4953 136.746 76.7306 137.34 79.1883C137.72 80.9683 138.78 82.5183 139.15 84.3383C140.91 92.9183 144.97 100.558 148.86 108.338C151.26 113.138 154.86 117.078 157.66 121.528C158.652 123.371 159.309 125.376 159.6 127.448C159.714 127.873 159.804 128.304 159.87 128.738C159.87 129.168 160.16 129.678 159.45 129.918C159.05 130.058 159.16 130.518 159.15 130.918C159.043 133.779 158.675 136.624 158.05 139.418C157.263 142.938 157.369 146.6 158.36 150.068C159.095 152.355 159.65 154.695 160.02 157.068C160.161 157.98 160.528 158.841 161.087 159.575C161.645 160.308 162.379 160.891 163.22 161.268C165.348 162.248 167.524 163.119 169.74 163.878C174.951 165.848 179.592 169.077 183.25 173.278C185.294 175.524 187.5 177.616 189.85 179.538C192.06 181.338 194.57 182.768 196.94 184.368C198.823 185.579 200.552 187.013 202.09 188.638C203.062 189.596 203.691 190.847 203.88 192.198C203.946 192.608 203.873 193.028 203.671 193.39C203.47 193.753 203.153 194.038 202.77 194.198C200.61 195.408 198.27 195.428 195.9 195.348C193.594 195.16 191.273 195.411 189.06 196.088C187.425 196.772 185.615 196.919 183.89 196.508C183.09 196.268 182.16 196.058 182.03 195.068C181.968 194.588 182.068 194.101 182.314 193.684C182.561 193.267 182.939 192.945 183.39 192.768C184.14 192.388 184.92 192.088 185.68 191.768C187.58 190.908 188.1 189.318 187.01 187.588C185.552 185.228 183.36 183.412 180.77 182.418C174.008 179.922 167.56 176.643 161.56 172.648C159.22 171.038 156.62 169.898 154.17 168.488C151.17 166.758 148.37 164.768 146.48 161.788C146.156 161.223 145.674 160.764 145.093 160.469C144.512 160.174 143.858 160.056 143.21 160.128C141.79 160.218 141.14 159.668 140.62 158.328C139.267 154.653 137.343 151.215 134.92 148.138C134.865 148.028 134.787 147.931 134.693 147.852C134.598 147.774 134.488 147.715 134.37 147.68C134.252 147.646 134.128 147.636 134.006 147.651C133.884 147.666 133.766 147.706 133.66 147.768C129.27 149.548 124.84 151.248 120.95 154.028C120.58 154.288 120.31 154.468 119.82 154.088C117.861 152.452 115.808 150.933 113.67 149.538C113.595 149.506 113.529 149.454 113.48 149.388C112.48 147.388 110.8 147.748 109.05 148.178C105.98 148.938 102.83 149.398 99.8302 150.458C99.5285 150.521 99.2601 150.692 99.0759 150.938C98.8916 151.185 98.8042 151.491 98.8302 151.798C98.6964 156.452 97.8811 161.061 96.4102 165.478C95.3106 168.159 93.8686 170.687 92.1202 172.998C89.1834 176.998 86.7893 181.37 85.0002 185.998C84.3702 187.768 84.5902 189.758 83.8902 191.478C82.6402 194.478 82.6702 197.838 81.7602 200.948C81.4568 202.062 80.9883 203.124 80.3702 204.098C80.1524 204.524 79.8514 204.901 79.485 205.208C79.1187 205.515 78.6945 205.745 78.2375 205.885C77.7805 206.025 77.3001 206.071 76.8248 206.022C76.3494 205.973 75.8888 205.829 75.4702 205.598C73.2969 204.533 71.2336 203.257 69.3102 201.788C64.9702 198.728 60.5602 195.788 56.8602 191.888C55.6199 190.758 54.7136 189.308 54.2402 187.698C54.0652 187.232 54.0297 186.724 54.138 186.238C54.2463 185.751 54.4938 185.307 54.8502 184.958C55.2296 184.563 55.7273 184.301 56.2684 184.212C56.8094 184.124 57.3645 184.214 57.8502 184.468C58.8481 184.878 59.776 185.442 60.6002 186.138C61.1529 186.686 61.8299 187.092 62.5733 187.322C63.3168 187.552 64.1047 187.598 64.8702 187.458C66.6518 187.352 68.4233 187.114 70.1702 186.748C70.8679 186.584 71.5269 186.285 72.1102 185.868C72.5502 185.518 73.1102 185.128 73.6302 185.328C74.6302 185.698 74.8402 185.058 75.1602 184.328C76.7402 180.938 78.4302 177.578 79.1602 173.898C80.0202 169.618 81.1602 165.418 82.3002 161.218C83.5928 156.761 84.5949 152.225 85.3002 147.638C85.5276 146.179 85.6512 144.705 85.6702 143.228C85.6702 140.128 87.2502 138.108 89.8002 136.758C92.1802 135.488 94.6802 134.438 97.1102 133.258C97.6402 132.998 98.4902 132.998 98.3202 131.968C98.3202 131.798 98.9002 131.498 99.2402 131.298C104.35 128.238 109.91 126.218 115.5 124.298C117.22 123.698 118.91 122.988 120.61 122.298C121.01 122.138 121.39 122.058 121.1 121.378C119.42 117.378 118.3 113.198 116.75 109.158C115.868 106.854 114.767 104.641 113.46 102.548C112.99 101.798 112.66 101.828 112.16 102.458C111.83 102.878 111.46 103.238 110.84 102.988C110.45 102.838 110.27 103.198 110.03 103.378C105.7 106.768 101.03 109.618 96.6902 113.068C96.1777 113.428 95.5786 113.644 94.9546 113.695C94.3305 113.746 93.7042 113.63 93.1402 113.358C88.4234 111.806 83.8276 109.907 79.3902 107.678C78.2602 107.078 77.2702 106.268 76.1802 105.618C75.5428 105.229 74.8738 104.895 74.1802 104.618C72.8702 104.118 72.2502 104.478 71.8002 105.808C71.7335 106.144 71.5776 106.456 71.3489 106.711C71.1201 106.967 70.827 107.155 70.5002 107.258C70.1424 107.307 69.7781 107.261 69.4432 107.126C69.1083 106.991 68.8143 106.771 68.5902 106.488C67.5012 105.518 66.345 104.626 65.1302 103.818C64.8402 103.598 64.4102 103.428 64.3202 103.148C63.7402 101.328 62.5802 99.6083 63.2502 97.5483C63.3846 97.2283 63.4445 96.8821 63.4254 96.5356C63.4064 96.1891 63.3088 95.8515 63.1402 95.5483C61.5754 92.7812 60.3659 89.8279 59.5402 86.7583C58.7002 83.7583 56.9502 81.1383 55.6502 78.3283C54.6502 76.0883 53.4902 73.8983 52.3702 71.6983C52.2102 71.3783 52.2102 70.8283 51.4902 71.0683C48.3702 72.0683 45.7302 70.9983 43.4902 68.9283C41.279 66.9391 39.5059 64.5115 38.2835 61.8001C37.0612 59.0886 36.4164 56.1524 36.3902 53.1783C36.1882 51.0711 36.4162 48.9448 37.0602 46.9283C38.7202 42.5883 42.4802 41.0683 46.5702 43.2383C49.9302 45.0183 52.0502 47.9583 53.6602 51.2383C55.5944 55.0178 56.4064 59.272 56.0002 63.4983C55.9116 65.9141 54.9195 68.2088 53.2202 69.9283C53.1292 69.9848 53.0509 70.0594 52.9901 70.1475C52.9292 70.2356 52.8872 70.3353 52.8665 70.4404C52.8459 70.5455 52.8471 70.6537 52.8701 70.7582C52.8931 70.8628 52.9374 70.9615 53.0002 71.0483C55.2302 75.5383 57.3002 80.1183 59.7302 84.4983C61.2502 87.2283 63.5702 89.4983 65.0402 92.2983C65.8502 93.8483 66.6602 94.9183 68.7102 94.2983C69.2248 94.1855 69.7601 94.2102 70.2621 94.3699C70.7642 94.5296 71.2153 94.8188 71.5702 95.2083C75.7202 99.2083 81.1102 100.678 86.4302 102.138C88.5802 102.728 90.9402 102.538 93.1002 103.318C93.5102 103.468 93.6802 103.148 93.8902 102.928L100.04 96.3783C100.12 96.2883 100.27 96.1983 100.27 96.1083C100.18 93.7483 102.35 92.8083 103.43 91.1883C104 90.3283 103.95 90.1283 103.08 89.6983C101.85 89.2391 100.577 88.9041 99.2802 88.6983C97.5435 88.242 95.9702 87.3064 94.7402 85.9983C94.0302 85.2483 93.3602 84.4783 92.1202 84.6383C91.4802 84.7183 90.9802 84.7683 90.6602 85.3983C90.5302 85.6683 90.3002 86.0083 89.9302 85.9083C89.5602 85.8083 89.4402 85.4583 89.3602 85.0783C89.1925 84.5002 89.2235 83.8825 89.4483 83.3241C89.6731 82.7657 90.0787 82.2989 90.6002 81.9983Z" fill="#EE5007"/>
<path d="M67.2 34.1484C67.39 35.9384 68.36 37.3284 69.13 38.8084L70.36 41.2384C70.57 41.6484 70.36 41.6884 70.01 41.7684C68.9431 42.0758 67.8402 42.2406 66.73 42.2584C64.9882 42.1453 63.2472 42.4901 61.68 43.2584C61.4799 43.3738 61.2572 43.4447 61.0273 43.4664C60.7973 43.4881 60.5653 43.4601 60.3471 43.3842C60.129 43.3083 59.9297 43.1863 59.7628 43.0266C59.5959 42.8669 59.4654 42.6731 59.38 42.4584C59.2726 42.2743 59.208 42.0684 59.191 41.8559C59.1741 41.6434 59.2052 41.4298 59.282 41.231C59.3588 41.0321 59.4795 40.8532 59.6349 40.7073C59.7904 40.5614 59.9767 40.4525 60.18 40.3884C61.8472 39.5595 63.2499 38.2815 64.23 36.6984C65.04 35.6589 66.0498 34.7918 67.2 34.1484Z" fill="#EE5007"/>
<path d="M55.2598 61.0887C55.3706 63.0837 54.9786 65.0746 54.1198 66.8787C52.5298 70.1287 49.4798 71.2087 46.2398 69.5987C42.5798 67.7787 40.4398 64.5987 38.8398 60.9887C37.4143 57.8163 36.8124 54.3355 37.0898 50.8687C37.1805 48.9106 37.8447 47.0224 38.9998 45.4387C40.6998 43.2087 43.7998 42.7587 46.5198 44.3087C48.6601 45.571 50.451 47.3481 51.7298 49.4787C53.978 52.9382 55.2018 56.9632 55.2598 61.0887Z" fill="#090909"/>
<path d="M64.4001 39.61C64.0501 39.88 63.8201 40.41 63.4001 40.17C63.2001 40.06 63.0701 39.37 63.1901 39.27C63.6801 38.79 63.8301 39.86 64.4001 39.61Z" fill="black"/>
</g>
<defs>
<clipPath id="clip0_98_1818">
<rect width="240.13" height="240.17" fill="white"/>
</clipPath>
</defs>
</svg>
