<svg width="522" height="522" viewBox="0 0 522 522" fill="none" xmlns="http://www.w3.org/2000/svg">
<path d="M0 276.214V245.474C0.66 245.224 0.48 244.634 0.51 244.154C1.185 233.237 2.56454 222.374 4.64 211.634C16.3533 152.048 45.1967 102.408 91.17 62.7144C130.88 28.5444 177 8.38443 229 1.98443C256.278 -1.42746 283.927 -0.434815 310.89 4.92443C357.35 14.1544 398.52 34.3444 433.69 66.0744C485.93 113.184 514.81 172.074 520.4 242.204C522.494 269.961 520.031 297.873 513.11 324.834C486.32 431.984 392.8 511.104 282.44 520.224C280.01 520.424 277.44 520.074 275.14 521.134H245.44C245.2 520.474 244.6 520.654 244.12 520.624C233.211 519.971 222.358 518.598 211.63 516.514C147.443 503.754 95.1367 471.638 54.71 420.164C23.06 379.744 5.35 333.634 0.92 282.444C0.74 280.374 1.08 278.174 0 276.214ZM195.41 66.7344L195.09 66.5644V66.7844L195.43 66.6544C195.03 68.6544 195.98 71.0044 193.98 72.5844C192.18 74.0144 190.98 75.5244 192.77 77.7844C192.815 77.9016 192.829 78.0282 192.812 78.1524C192.794 78.2765 192.745 78.3943 192.67 78.4944C189.62 81.2944 192.98 85.3044 190.84 88.2644C190.79 88.3344 190.95 88.5744 191.04 88.7244C191.82 89.9944 191.57 91.3044 191.49 92.7244C191.33 95.8444 191.32 99.3344 193.29 101.724C196.57 105.724 196.29 110.414 197.03 114.964C197.089 115.434 197.044 115.91 196.897 116.36C196.75 116.809 196.505 117.221 196.18 117.564C191.85 123.154 185.71 126.224 179.65 129.404C178.67 129.752 177.627 129.888 176.59 129.804C172.08 130.154 167.59 131.244 164.41 134.414C159.15 139.674 153.57 144.714 149.34 150.934C143.224 160.031 135.68 168.081 127 174.774C124.52 176.674 122.19 178.504 120.43 181.384C116.522 187.528 113.512 194.199 111.49 201.194C109.92 206.974 108.89 213.194 105.57 218.044C102.25 222.894 102.67 227.704 102.89 232.804C102.89 233.244 102.89 233.684 102.96 234.104C103.61 238.624 102.28 242.694 100.06 246.514C98.128 249.64 97.3961 253.36 98 256.984C98.45 259.634 98.89 262.294 99.12 264.984C99.35 267.674 101.12 269.504 103.12 271.064C104.87 272.444 105.95 271.944 106.22 269.744C106.185 268.958 106.417 268.182 106.88 267.544C107.74 267.544 108.57 270.314 109.36 267.824C110.29 264.874 111.84 262.064 111.87 258.824C111.86 258.129 112.005 257.44 112.294 256.807C112.582 256.174 113.008 255.613 113.54 255.164C114.155 254.607 114.649 253.931 114.993 253.176C115.337 252.421 115.523 251.604 115.54 250.774C115.917 248.016 115.863 245.216 115.38 242.474C114.77 239.794 115.38 237.764 117.87 236.284C119.87 235.104 122.19 234.084 121.54 231.004C121.48 230.704 121.94 230.264 122.22 229.944C130.11 220.874 134.46 209.644 140.63 199.524C143.55 194.714 146.4 190.084 151.37 187.094C153.25 186.158 154.847 184.74 156 182.984C158.47 178.324 162.6 176.804 167.41 176.314L167.66 176.264C169.27 175.944 171.17 174.954 172.42 175.484C173.96 176.144 173.3 178.594 174.04 180.134C174.04 180.204 174.04 180.304 174.1 180.384L187.86 222.384C189.39 227.124 192.12 231.674 191.3 236.914C190.593 241.068 190.774 245.325 191.832 249.403C192.891 253.481 194.802 257.289 197.44 260.574C198.27 261.654 198.65 263.084 199.94 263.824C200.788 264.344 201.52 265.034 202.089 265.849C202.659 266.665 203.054 267.589 203.25 268.564C206.52 279.803 211.494 290.474 218 300.204C219.489 302.664 221.343 304.883 223.5 306.784C233.32 314.784 242 324.104 251.5 332.434C252.67 333.434 252.41 333.944 251.5 334.804C249.65 336.504 247.89 338.314 246.09 340.064C245.53 340.581 245.11 341.231 244.87 341.954C242.78 348.124 242.03 355.044 235.28 358.664C234.08 359.304 233.48 359.664 232.22 359.034C230.464 358.162 228.484 357.846 226.543 358.128C224.603 358.411 222.795 359.278 221.36 360.614C219.22 362.794 219.59 366.614 215.91 367.954C214.3 368.544 216.48 375.534 218.62 376.284C222.39 377.614 224.04 380.684 224.75 384.094C225.39 387.174 227.5 390.694 223.82 393.474C223.62 393.624 223.69 394.134 223.66 394.474C223.43 396.794 224.66 399.024 224.08 401.364C224.03 401.594 224.08 402.034 224.27 402.094C226.57 403.094 226.27 405.324 226.8 407.154C228.26 412.034 230.4 416.424 235.41 418.594C240.82 420.934 244.63 419.014 245.99 413.314C246.996 408.636 247.333 403.838 246.99 399.064C246.86 396.424 247.13 394.064 249.12 392.204C251.11 390.344 251.07 388.364 249.29 386.354C249.036 386.124 248.834 385.843 248.695 385.529C248.557 385.216 248.485 384.877 248.485 384.534C248.485 384.192 248.557 383.853 248.695 383.539C248.834 383.226 249.036 382.945 249.29 382.714C249.737 382.233 250.061 381.65 250.235 381.017C250.409 380.383 250.428 379.717 250.29 379.074C249.59 376.524 251.11 375.654 253.09 375.074L261.09 372.854C262.41 372.484 263.6 371.774 263.82 370.344C264.09 368.554 265.33 367.494 266.38 366.254C267.61 364.794 269.45 363.524 269.94 361.854C270.77 359.014 272.88 357.944 275.02 356.684C283.07 351.974 282.92 352.234 290.97 356.734C297.13 360.184 302.07 364.484 305.24 370.854C308.962 378.414 315.434 384.264 323.33 387.204C325.5 388.054 327.54 389.204 329.64 390.274C330.25 390.574 331.05 390.684 331.34 391.374C332.22 393.464 334.15 394.134 335.99 394.854C339.87 396.354 343.81 397.704 347.7 399.174C355.08 401.984 362.51 404.734 368.6 410.004C370.966 412.065 373.889 413.38 377 413.784C378 413.934 378.87 414.054 379.38 415.074C384.31 424.964 393.82 428.234 403.27 431.614C404.454 431.883 405.673 431.957 406.88 431.834C410.28 431.914 412.93 429.594 416.16 428.964C417.101 428.764 417.933 428.216 418.489 427.431C419.044 426.645 419.284 425.679 419.16 424.724C419 423.474 420.16 422.374 421.53 422.074C423.66 421.614 423.65 420.404 422.83 418.814C422.523 418.294 422.274 417.74 422.09 417.164C420.44 410.724 417.79 408.224 411.29 408.164C405.442 408.224 399.74 406.339 395.08 402.804C393.34 401.502 391.388 400.511 389.31 399.874C388.9 399.744 388.36 399.634 388.16 399.334C385.85 395.864 381.77 395.034 378.6 392.844C376.13 391.144 372.82 391.064 370.6 389.154C363.9 383.274 356.6 378.044 350.99 370.944C345.38 363.844 338.76 358.214 329.99 354.884C323.92 352.584 318.39 348.744 314.87 342.704C313.36 340.124 311.87 337.174 309.1 335.764C305.1 333.764 302.99 330.274 300.85 326.704C299.55 324.534 299.8 323.704 302.35 323.174C303.83 322.874 303.68 322.464 303.29 321.324C301.943 317.437 300.91 313.447 300.2 309.394C298.67 300.504 296.52 291.754 294.84 282.894C292.72 271.724 290.75 260.514 284.43 250.714C282.854 248.203 282.093 245.265 282.25 242.304C282.25 241.304 282.25 240.304 281.25 239.814C277.62 237.964 277.74 235.034 278.96 231.814C279.42 230.604 279.42 229.334 278.25 228.814C273.95 227.044 272.31 223.374 271 219.364C270.75 218.715 270.376 218.121 269.9 217.614C265.74 212.804 262.9 207.514 263.45 200.864C263.514 199.557 263.231 198.257 262.63 197.094C260.41 192.754 260.89 188.414 262.2 183.974C262.652 182.391 262.917 180.76 262.99 179.114C263.09 177.314 263.45 176.734 265.19 177.884C270.171 181.156 275.836 183.243 281.75 183.984C282.46 184.084 283.17 184.224 283.47 184.984C285.03 188.774 289.2 191.474 288.03 196.454C287.82 197.344 289.38 198.514 289.49 199.624C289.69 201.564 287.13 199.774 286.68 201.404C286.23 203.034 284.95 204.184 283.96 205.504C283.64 205.914 283.12 206.624 283.52 206.854C285.62 208.134 286.17 211.344 288.42 211.854C291.42 212.494 293.34 214.944 296.75 215.134C300.59 215.354 305.01 214.834 308.38 217.784H308.64C308.931 217.876 309.243 217.878 309.535 217.79C309.827 217.703 310.087 217.53 310.28 217.294C310.368 217.168 310.428 217.023 310.456 216.871C310.483 216.719 310.478 216.563 310.44 216.413C310.402 216.264 310.332 216.124 310.236 216.003C310.139 215.883 310.018 215.784 309.88 215.714C307.66 214.044 307.95 211.134 306.53 209.084C306.1 208.474 306.36 208.084 306.83 207.524C307.546 206.766 308.073 205.848 308.367 204.847C308.66 203.846 308.713 202.79 308.52 201.764C308.29 200.354 309.04 199.074 309.33 197.764C309.91 195.034 311.76 192.244 309.33 189.454C309.18 189.284 309.28 188.784 309.4 188.454C310.5 185.924 308.01 184.044 308.16 181.684C308.16 181.434 307.78 181.094 307.49 180.924C305.19 179.514 304.21 177.204 303.3 174.834C302.54 172.834 301.16 171.194 299.14 170.914C296.83 170.594 296.02 169.344 295.71 167.414C295.701 166.969 295.554 166.537 295.289 166.179C295.024 165.82 294.654 165.553 294.23 165.414C291.31 164.754 290.98 162.534 290.65 160.114C290.37 158.135 289.689 156.233 288.65 154.524C286.95 151.704 285.323 148.841 283.77 145.934C282.716 144.037 281.136 142.485 279.22 141.464C275.11 139.084 270.41 136.994 267.76 133.104C263.84 127.334 258.31 125.244 252.07 124.104C246.27 123.034 240.57 121.524 234.85 120.104C234.428 120.041 234.022 119.893 233.658 119.67C233.294 119.446 232.978 119.152 232.73 118.804C230.73 115.894 229.48 113.054 231.02 109.404C231.573 107.693 232.445 106.102 233.59 104.714C235.304 102.989 236.823 101.081 238.12 99.0244C238.796 98.1049 239.115 96.9716 239.02 95.8344C238.78 94.1544 236.28 92.2344 239.53 90.9044C239.53 90.9044 239.6 90.7444 239.58 90.6744C239.178 87.95 238.991 85.1982 239.02 82.4444C239.02 80.7144 239.02 78.9144 239.11 77.1144C239.21 74.4744 238.73 71.9344 236.29 70.2344C235.37 69.5944 233.89 68.8544 233.81 68.0544C233.45 64.4144 228.7 66.2244 228.08 63.1644C225.8 64.2244 225.23 62.0744 224.08 61.0044C223.5 60.4444 223.15 60.6744 222.53 60.9444C220.25 61.9444 218.02 62.0044 216.06 60.1144C215.72 59.7844 214.83 59.2844 214.83 59.5244C214.83 62.4644 213.19 60.3344 212.3 60.4344C212 60.4344 211.48 60.3044 211.68 60.8644C212.31 62.6744 210.83 61.8644 210.24 62.0044C208.87 62.2444 207.48 62.3444 206.1 62.4744C204.38 62.6444 203.77 63.1544 205.78 64.4744C203.85 64.6044 202.61 65.4744 201.22 66.1744C199.54 67.1244 197.46 67.7944 195.41 66.7344ZM301.82 405.324C296.206 405.319 290.717 406.976 286.045 410.089C281.373 413.201 277.728 417.628 275.571 422.81C273.414 427.993 272.841 433.698 273.924 439.206C275.008 444.714 277.699 449.778 281.659 453.757C285.619 457.736 290.669 460.452 296.171 461.563C301.674 462.674 307.382 462.129 312.575 459.997C317.768 457.865 322.213 454.242 325.348 449.586C328.483 444.929 330.168 439.448 330.19 433.834C330.216 430.095 329.502 426.387 328.087 422.925C326.672 419.464 324.586 416.316 321.948 413.665C319.31 411.015 316.173 408.913 312.719 407.481C309.264 406.049 305.56 405.316 301.82 405.324Z" fill="#EE5007"/>
<path d="M195.41 66.7333C197.46 67.7933 199.54 67.1233 201.3 66.2833C202.69 65.6133 203.93 64.7133 205.86 64.5833C203.86 63.2133 204.46 62.7033 206.18 62.5833L210.32 62.1133C210.91 62.0133 212.39 62.7833 211.76 60.9733C211.56 60.4133 212.08 60.5733 212.38 60.5433C213.27 60.4433 214.95 62.5433 214.91 59.6333C214.91 59.3933 215.8 59.8933 216.14 60.2233C218.14 62.1133 220.33 62.0333 222.61 61.0533C223.23 60.7833 223.61 60.5533 224.16 61.1133C225.27 62.1833 225.84 64.3333 228.16 63.2733C228.78 66.3333 233.53 64.5233 233.89 68.1633C233.97 68.9633 235.45 69.7033 236.37 70.3433C238.81 72.0433 239.29 74.5833 239.19 77.2233L239.1 82.5533C239.071 85.3071 239.258 88.0589 239.66 90.7833C239.66 90.8533 239.66 90.9933 239.61 91.0133C236.36 92.3433 238.86 94.2633 239.1 95.9433C239.195 97.0805 238.876 98.2137 238.2 99.1333C236.903 101.19 235.384 103.098 233.67 104.823C232.525 106.21 231.653 107.802 231.1 109.513C229.56 113.163 230.84 116.003 232.81 118.913C233.058 119.261 233.374 119.555 233.738 119.778C234.102 120.002 234.507 120.15 234.93 120.213C240.65 121.633 246.35 123.143 252.15 124.213C258.39 125.353 263.92 127.443 267.84 133.213C270.49 137.103 275.19 139.213 279.3 141.573C281.216 142.594 282.796 144.146 283.85 146.043C285.41 148.943 287.037 151.807 288.73 154.633C289.769 156.341 290.45 158.243 290.73 160.223C291.06 162.643 291.39 164.863 294.31 165.523C294.733 165.662 295.103 165.929 295.369 166.287C295.634 166.646 295.781 167.078 295.79 167.523C296.1 169.453 296.91 170.703 299.22 171.023C301.22 171.303 302.62 173.023 303.38 174.943C304.29 177.313 305.27 179.623 307.57 181.033C307.86 181.203 308.26 181.543 308.24 181.793C308.09 184.153 310.58 186.033 309.48 188.563C309.36 188.853 309.26 189.353 309.41 189.563C311.81 192.353 309.96 195.143 309.41 197.873C309.12 199.213 308.41 200.493 308.6 201.873C308.793 202.899 308.74 203.955 308.446 204.956C308.153 205.957 307.626 206.875 306.91 207.633C306.44 208.153 306.18 208.583 306.61 209.193C308.03 211.193 307.74 214.193 309.96 215.823C310.098 215.893 310.219 215.991 310.316 216.112C310.412 216.233 310.482 216.372 310.52 216.522C310.558 216.672 310.563 216.828 310.535 216.98C310.508 217.132 310.448 217.276 310.36 217.403C310.166 217.639 309.907 217.812 309.615 217.899C309.323 217.986 309.011 217.984 308.72 217.893H308.46C305.09 214.893 300.67 215.463 296.83 215.243C293.42 215.053 291.48 212.603 288.5 211.963C286.25 211.483 285.7 208.273 283.6 206.963C283.2 206.733 283.72 206.023 284.04 205.613C285.04 204.293 286.32 203.133 286.76 201.513C287.2 199.893 289.76 201.673 289.57 199.733C289.46 198.623 287.9 197.453 288.11 196.563C289.28 191.563 285.11 188.883 283.55 185.093C283.25 184.363 282.55 184.223 281.83 184.093C275.955 183.339 270.33 181.256 265.38 178.003C263.64 176.853 263.28 177.433 263.18 179.233C263.107 180.879 262.842 182.51 262.39 184.093C261.08 188.533 260.6 192.873 262.82 197.213C263.421 198.376 263.704 199.676 263.64 200.983C263.1 207.633 265.93 212.923 270.09 217.733C270.566 218.24 270.94 218.834 271.19 219.483C272.5 223.483 274.14 227.163 278.44 228.933C279.61 229.413 279.61 230.683 279.15 231.933C277.93 235.143 277.81 238.073 281.44 239.933C282.44 240.453 282.44 241.443 282.44 242.423C282.283 245.384 283.044 248.322 284.62 250.833C290.94 260.633 292.91 271.833 295.03 283.013L300.39 309.513C301.099 313.566 302.133 317.556 303.48 321.443C303.87 322.583 304.02 322.993 302.54 323.293C299.99 323.803 299.74 324.653 301.04 326.823C303.18 330.393 305.31 333.823 309.29 335.883C312.04 337.293 313.55 340.243 315.06 342.823C318.58 348.823 324.06 352.703 330.18 355.003C338.96 358.333 345.59 364.003 351.18 371.063C356.77 378.123 364.09 383.393 370.79 389.273C372.97 391.183 376.28 391.273 378.79 392.963C381.96 395.153 386.04 395.963 388.35 399.453C388.55 399.753 389.09 399.863 389.5 399.993C391.578 400.63 393.53 401.621 395.27 402.923C399.93 406.457 405.632 408.343 411.48 408.283C417.98 408.363 420.63 410.863 422.28 417.283C422.464 417.859 422.712 418.413 423.02 418.933C423.84 420.523 423.85 421.733 421.72 422.193C420.33 422.493 419.19 423.593 419.35 424.843C419.474 425.798 419.234 426.764 418.678 427.55C418.122 428.335 417.291 428.883 416.35 429.083C413.12 429.713 410.47 432.033 407.07 431.953C405.863 432.076 404.643 432.001 403.46 431.733C394.01 428.353 384.46 425.083 379.57 415.193C379.06 414.193 378.16 414.053 377.19 413.903C374.079 413.499 371.156 412.184 368.79 410.123C362.7 404.853 355.27 402.123 347.89 399.293L336.18 394.973C334.34 394.253 332.41 393.583 331.53 391.493C331.24 390.803 330.44 390.693 329.83 390.393C327.73 389.393 325.69 388.173 323.52 387.323C315.624 384.383 309.151 378.533 305.43 370.973C302.26 364.603 297.32 360.303 291.16 356.853C283.11 352.353 283.26 352.093 275.21 356.803C273.07 358.063 270.96 359.133 270.13 361.973C269.64 363.643 267.8 364.913 266.57 366.373C265.52 367.613 264.28 368.673 264.01 370.463C263.79 371.893 262.6 372.603 261.28 372.973L253.28 375.193C251.28 375.763 249.78 376.633 250.48 379.193C250.618 379.836 250.599 380.502 250.425 381.136C250.251 381.769 249.927 382.352 249.48 382.833C249.226 383.064 249.024 383.345 248.885 383.658C248.746 383.972 248.675 384.311 248.675 384.653C248.675 384.996 248.746 385.335 248.885 385.648C249.024 385.962 249.226 386.243 249.48 386.473C251.26 388.473 251.3 390.473 249.31 392.323C247.32 394.173 247.05 396.543 247.18 399.183C247.523 403.957 247.186 408.755 246.18 413.433C244.82 419.133 241.01 421.053 235.6 418.713C230.6 416.543 228.45 412.153 226.99 407.273C226.44 405.443 226.76 403.183 224.46 402.213C224.31 402.153 224.22 401.713 224.27 401.483C224.85 399.143 223.62 396.913 223.85 394.593C223.85 394.253 223.85 393.743 224.01 393.593C227.69 390.813 225.58 387.293 224.94 384.213C224.23 380.803 222.58 377.733 218.81 376.403C216.67 375.653 214.49 368.663 216.1 368.073C219.78 366.703 219.41 362.913 221.55 360.733C222.985 359.397 224.793 358.529 226.733 358.247C228.673 357.965 230.654 358.281 232.41 359.153C233.67 359.743 234.27 359.423 235.47 358.783C242.22 355.163 242.97 348.243 245.06 342.073C245.3 341.35 245.719 340.7 246.28 340.183L251.69 334.923C252.63 334.063 252.89 333.583 251.69 332.553C242.15 324.223 233.47 314.943 223.69 306.903C221.533 305.002 219.679 302.783 218.19 300.323C211.671 290.586 206.686 279.904 203.41 268.653C203.214 267.678 202.819 266.754 202.249 265.938C201.68 265.122 200.948 264.433 200.1 263.913C198.81 263.173 198.43 261.743 197.6 260.663C194.962 257.378 193.051 253.57 191.992 249.492C190.934 245.413 190.752 241.157 191.46 237.003C192.28 231.763 189.55 227.213 188.02 222.473L174.26 180.473C174.26 180.393 174.26 180.293 174.2 180.223C173.46 178.683 174.12 176.223 172.58 175.573C171.33 175.043 169.43 176.033 167.82 176.353L167.57 176.403C162.76 176.893 158.63 178.403 156.16 183.073C155.022 184.843 153.435 186.279 151.56 187.233C146.56 190.233 143.74 194.853 140.82 199.663C134.65 209.783 130.3 221.013 122.41 230.083C122.13 230.403 121.67 230.843 121.73 231.143C122.38 234.223 120.01 235.243 118.06 236.423C115.61 237.903 114.96 239.933 115.57 242.613C116.053 245.355 116.107 248.155 115.73 250.913C115.713 251.743 115.527 252.56 115.183 253.315C114.839 254.07 114.345 254.746 113.73 255.303C113.198 255.752 112.772 256.313 112.483 256.946C112.195 257.579 112.05 258.268 112.06 258.963C112.06 262.173 110.48 264.963 109.55 267.963C108.76 270.453 107.93 267.683 107.07 267.683C106.607 268.321 106.375 269.096 106.41 269.883C106.14 272.083 105.06 272.583 103.31 271.203C101.31 269.643 99.5398 267.943 99.3098 265.123C99.0798 262.303 98.6398 259.793 98.1898 257.123C97.5927 253.488 98.3392 249.759 100.29 246.633C102.51 242.813 103.84 238.743 103.19 234.223C103.13 233.803 103.19 233.363 103.12 232.923C102.9 227.823 102.43 223.053 105.8 218.163C109.17 213.273 110 206.983 111.53 201.193C113.552 194.198 116.562 187.527 120.47 181.383C122.23 178.503 124.56 176.673 127.04 174.773C135.709 168.093 143.246 160.06 149.36 150.983C153.59 144.763 159.17 139.723 164.43 134.463C167.59 131.293 172.1 130.203 176.61 129.853C177.647 129.937 178.689 129.8 179.67 129.453C185.73 126.273 191.87 123.203 196.2 117.613C196.525 117.27 196.77 116.858 196.917 116.409C197.064 115.959 197.109 115.483 197.05 115.013C196.33 110.463 196.59 105.783 193.31 101.773C191.31 99.3633 191.31 95.8733 191.51 92.7733C191.59 91.3633 191.84 90.0533 191.06 88.7733C190.97 88.6233 190.81 88.3833 190.86 88.3133C193 85.3133 189.64 81.3133 192.69 78.5433C192.765 78.4431 192.814 78.3254 192.832 78.2012C192.849 78.077 192.835 77.9504 192.79 77.8333C191 75.5233 192.2 73.9833 194 72.5833C196 71.0033 195.05 68.6533 195.45 66.6533L195.41 66.7333ZM301.82 405.323C307.435 405.329 312.923 407 317.589 410.123C322.255 413.247 325.89 417.684 328.036 422.874C330.181 428.063 330.74 433.772 329.641 439.279C328.543 444.785 325.837 449.843 321.865 453.812C317.893 457.781 312.833 460.484 307.326 461.579C301.818 462.673 296.109 462.11 290.922 459.961C285.734 457.813 281.299 454.174 278.179 449.506C275.058 444.837 273.392 439.349 273.39 433.733C273.387 430 274.121 426.303 275.549 422.854C276.977 419.404 279.071 416.27 281.712 413.631C284.353 410.993 287.488 408.9 290.939 407.475C294.389 406.049 298.087 405.318 301.82 405.323Z" fill="black"/>
</svg>
