<svg width="521" height="522" viewBox="0 0 521 522" fill="none" xmlns="http://www.w3.org/2000/svg">
<g clip-path="url(#clip0_99_1844)">
<path d="M275 521.249H245.3C244.89 520.399 244.09 520.769 243.46 520.729C230.468 519.913 217.557 518.104 204.84 515.319C149.45 502.889 102.43 475.799 65.1802 432.999C12.5602 372.529 -7.87982 301.998 2.70018 222.648C7.15525 188.64 18.8515 155.983 37.0002 126.879C81.3102 55.5185 145.15 13.5985 228.55 2.20851C262.15 -2.38149 295.41 0.318511 328.16 9.04851C433.81 37.2485 511.1 129.839 520.07 238.809C520.27 241.239 519.93 243.809 520.98 246.109V275.819C520.21 276.149 520.5 276.818 520.46 277.398C519.449 293.508 516.952 309.489 513 325.139C485.5 432.689 392.65 511.229 282.36 520.339C279.88 520.539 277.35 520.189 275 521.249ZM242.58 426.858C245.67 426.728 249.16 427.679 252.72 427.729C253.91 427.729 254.32 428.329 254.72 429.339C256.241 433.194 257.432 437.172 258.28 441.229C259.196 445.917 259.435 450.712 258.99 455.469C258.6 460.189 260.22 461.849 264.88 461.789C266.267 461.782 267.652 461.705 269.03 461.559C277.97 460.509 286.82 458.558 295.87 458.738C301.18 458.858 306.53 457.679 311.82 459.249C313.313 459.801 314.961 459.754 316.42 459.118C317.42 458.598 318.68 457.479 316.97 456.669C313.89 455.209 311.73 452.519 308.63 451.059C303.92 448.829 298.91 447.508 294.04 445.768C288.31 443.768 283.04 441.148 279.51 435.898C278.21 433.958 276.92 431.999 275.8 429.949C275.07 428.609 273.03 427.339 275.14 425.469C275.34 425.289 275.14 424.409 274.86 423.999C273.19 421.349 273.19 418.198 272.18 415.398C267.74 403.038 269.47 389.998 267.64 377.398C267.23 374.608 266.95 371.949 265.37 369.559C264.135 367.819 263.352 365.799 263.092 363.682C262.832 361.564 263.103 359.415 263.88 357.428C265.516 353.291 265.816 348.745 264.74 344.428C262.13 334.658 262.69 324.809 262.84 314.889C262.91 309.999 264.96 308.009 269.2 306.409C275.06 304.199 278.03 298.879 272.38 293.309C269.28 290.249 267.91 286.169 265.54 282.699C264.01 280.449 264.49 277.848 265.26 275.398C265.62 274.248 266.37 273.749 267.17 275.159C268.124 276.703 268.985 278.302 269.75 279.949C270.361 281.573 271.365 283.02 272.672 284.161C273.979 285.303 275.549 286.102 277.24 286.488C279.107 286.877 281.02 286.995 282.92 286.839C292.7 286.599 302.55 287.739 312.19 285.219C318.66 283.519 325.52 284.449 331.9 282.159C333.44 281.609 335.12 281.468 336.69 281.018C338.84 280.408 339.83 281.339 339.46 283.339C338.39 289.099 341.13 293.409 344.6 297.439C347.92 301.289 354.97 302.929 359.41 300.819C362.963 299.217 366.413 297.397 369.74 295.368C372.81 293.428 375.74 290.869 376.99 287.469C378.15 283.978 378.333 280.236 377.52 276.648C377.172 275.115 377.138 273.526 377.422 271.979C377.706 270.432 378.3 268.959 379.17 267.648C380.85 264.818 382.72 261.798 381.92 258.208C381.474 256.174 381.289 254.09 381.37 252.008C381.475 250.883 381.162 249.758 380.49 248.849C376.065 242.891 372.252 236.502 369.11 229.779C367.91 227.369 367.25 225.138 369.44 222.898C370.404 222.032 371.023 220.848 371.185 219.562C371.346 218.277 371.039 216.976 370.32 215.898C369.91 215.178 369.26 214.498 369.45 213.538C370.08 210.248 376.32 204.488 379.69 204.178C382.107 203.846 384.387 202.857 386.28 201.319C387.72 200.319 387.93 198.619 387.94 196.939C387.974 196.774 388.041 196.618 388.137 196.481C388.234 196.343 388.357 196.227 388.5 196.139C391.75 194.069 392.95 190.709 393.94 187.299C396.1 179.899 394.52 170.979 387.04 166.159C384.592 164.506 381.869 163.301 379 162.599C372.43 161.129 366 160.599 360.14 165.159C357.82 166.969 356.39 169.449 354.74 171.769C354.03 172.769 352.65 173.278 352.62 174.868C352.58 177.063 351.704 179.159 350.17 180.729C348.815 182.285 347.861 184.149 347.39 186.159C346.688 188.284 346.12 190.452 345.69 192.648C345.32 195.068 344.02 195.459 341.91 194.439C339.59 193.319 337.24 191.879 334.77 191.549C330.885 191.005 327.278 189.228 324.48 186.479C319.93 182.119 314.56 180.848 308.66 180.398C303.8 180.028 298.95 180.739 294.14 180.609C287.22 180.419 280.32 179.449 273.38 179.219C269.57 179.089 265.61 179.218 262.03 177.928C256.25 175.878 250.12 175.929 244.28 174.249C239.13 172.799 233.8 171.948 228.67 170.428C225.57 169.508 222.32 168.298 221.5 164.428C221.242 162.836 220.468 161.373 219.297 160.264C218.127 159.155 216.624 158.461 215.02 158.288C214.32 158.158 213.75 158.149 213.54 157.209C212.159 151.466 209.446 146.129 205.62 141.629C203.352 138.787 201.252 135.815 199.33 132.729C192.958 122.576 185.588 113.086 177.33 104.399C171.63 98.4585 165.53 92.8885 159.65 87.1185C156.65 84.2085 153.65 81.3385 152.65 77.1185C152.385 76.4855 152.031 75.893 151.6 75.3585C149.62 71.9092 147.37 68.6223 144.87 65.5285C139.2 58.8785 133.87 57.7785 128.09 63.3985C125.89 65.5185 125.49 70.3985 127.74 72.0785C131.09 74.5685 131.9 77.3185 130.49 81.2685C129.66 83.5885 130.16 86.5485 132.65 87.6385C135.92 89.0785 139.5 89.7785 142.88 91.1685C144.71 91.9185 146.01 92.4485 146.78 94.2385C149.99 101.709 153.21 109.159 156.07 116.769C156.325 117.282 156.407 117.864 156.305 118.428C156.202 118.992 155.92 119.508 155.5 119.899C150.169 126.063 144.314 131.755 138 136.909C136.6 138.099 136.58 138.809 137.91 140.099C144.32 146.309 150.81 152.439 155.91 159.879C158.133 162.889 160.812 165.534 163.85 167.719C167.63 170.599 171.79 173.379 173.85 177.719C177.18 184.869 181.32 191.579 184.39 198.839C185.819 201.998 187.666 204.951 189.88 207.618C192.09 210.408 194.69 212.949 196.56 215.939C201.5 223.889 209.14 230.479 209.45 240.829C209.462 240.913 209.489 240.994 209.53 241.069C211.339 245.255 212.088 249.823 211.71 254.368C211.21 260.558 212.15 266.839 212 273.099C211.892 276.395 211.999 279.696 212.32 282.979C213.13 290.389 214.12 297.798 214.48 305.238C214.74 310.788 215.33 316.308 215.83 321.828C217.04 335.378 219.34 348.829 218.66 362.539C218.505 365.398 218.669 368.266 219.15 371.089C220.32 377.989 221.78 384.858 222.03 391.898C222.17 395.898 222.51 399.898 222.92 403.828C223.71 411.258 226.27 418.288 227.83 425.548C227.95 426.02 228.226 426.436 228.612 426.73C228.999 427.024 229.474 427.179 229.96 427.169C231.34 427.355 232.737 427.372 234.12 427.219C236.92 426.771 239.762 426.65 242.59 426.858H242.58Z" fill="black"/>
<path d="M242.59 426.86C239.745 426.657 236.885 426.788 234.07 427.25C232.687 427.403 231.29 427.386 229.91 427.2C229.424 427.21 228.949 427.056 228.562 426.761C228.176 426.467 227.9 426.051 227.78 425.58C226.22 418.32 223.66 411.29 222.87 403.86C222.46 399.86 222.12 395.91 221.98 391.93C221.73 384.93 220.27 378.02 219.1 371.12C218.619 368.297 218.455 365.429 218.61 362.57C219.29 348.88 216.99 335.41 215.78 321.86C215.28 316.34 214.69 310.86 214.43 305.27C214.07 297.83 213.08 290.42 212.27 283.01C211.949 279.727 211.842 276.426 211.95 273.13C212.1 266.87 211.16 260.59 211.66 254.4C212.038 249.854 211.289 245.286 209.48 241.1C209.439 241.025 209.412 240.944 209.4 240.86C209.09 230.51 201.4 223.92 196.51 215.97C194.64 212.97 192.04 210.44 189.83 207.65C187.616 204.982 185.769 202.029 184.34 198.87C181.27 191.61 177.13 184.87 173.8 177.75C171.8 173.38 167.61 170.6 163.8 167.75C160.762 165.565 158.083 162.92 155.86 159.91C150.74 152.47 144.25 146.34 137.86 140.13C136.53 138.84 136.55 138.13 137.95 136.94C144.266 131.767 150.122 126.055 155.45 119.87C155.87 119.479 156.152 118.963 156.255 118.399C156.357 117.835 156.275 117.253 156.02 116.74C153.16 109.13 149.94 101.68 146.73 94.2095C145.96 92.4195 144.66 91.8895 142.83 91.1395C139.45 89.7495 135.83 89.0495 132.6 87.6095C130.11 86.5195 129.6 83.6095 130.44 81.2395C131.85 77.2895 131.04 74.5395 127.69 72.0495C125.44 70.3795 125.84 65.4895 128.04 63.3695C133.87 57.7495 139.15 58.8495 144.82 65.4995C147.32 68.5933 149.57 71.8802 151.55 75.3295C151.981 75.864 152.334 76.4565 152.6 77.0895C153.6 81.3595 156.67 84.2295 159.6 87.0895C165.48 92.8595 171.6 98.4295 177.28 104.37C185.538 113.057 192.908 122.547 199.28 132.7C201.202 135.786 203.302 138.758 205.57 141.6C209.396 146.1 212.109 151.437 213.49 157.18C213.7 158.12 214.27 158.18 214.97 158.26C216.574 158.432 218.076 159.126 219.247 160.235C220.418 161.344 221.192 162.807 221.45 164.4C222.27 168.28 225.52 169.49 228.62 170.4C233.75 171.92 239.08 172.77 244.23 174.22C250.07 175.86 256.23 175.85 261.98 177.9C265.56 179.16 269.52 179.06 273.33 179.19C280.27 179.42 287.17 180.39 294.09 180.58C298.9 180.71 303.75 180 308.61 180.37C314.51 180.82 319.88 182.09 324.43 186.45C327.228 189.199 330.835 190.976 334.72 191.52C337.19 191.85 339.54 193.29 341.86 194.41C343.97 195.41 345.27 195.04 345.64 192.62C346.07 190.423 346.638 188.255 347.34 186.13C347.811 184.12 348.765 182.256 350.12 180.7C351.654 179.13 352.53 177.034 352.57 174.84C352.57 173.25 353.98 172.75 354.69 171.74C356.34 169.42 357.77 166.94 360.09 165.13C365.91 160.58 372.38 161.13 378.95 162.57C381.823 163.235 384.555 164.403 387.02 166.02C394.5 170.84 396.08 179.76 393.92 187.16C392.92 190.57 391.73 193.93 388.48 196C388.337 196.088 388.214 196.204 388.117 196.342C388.021 196.479 387.954 196.635 387.92 196.8C387.92 198.48 387.7 200.14 386.26 201.18C384.367 202.718 382.087 203.707 379.67 204.04C376.3 204.35 370.06 210.11 369.43 213.4C369.24 214.4 369.89 215.04 370.3 215.76C371.019 216.837 371.326 218.138 371.164 219.424C371.003 220.709 370.384 221.893 369.42 222.76C367.23 225 367.89 227.23 369.09 229.64C372.232 236.363 376.045 242.752 380.47 248.71C381.142 249.619 381.455 250.744 381.35 251.87C381.269 253.951 381.454 256.035 381.9 258.07C382.7 261.66 380.83 264.68 379.15 267.51C378.28 268.82 377.686 270.293 377.402 271.84C377.118 273.387 377.152 274.976 377.5 276.51C378.313 280.097 378.13 283.839 376.97 287.33C375.74 290.73 372.79 293.33 369.72 295.23C366.393 297.258 362.943 299.078 359.39 300.68C354.95 302.79 347.9 301.15 344.58 297.3C341.11 293.3 338.37 288.96 339.44 283.2C339.81 281.2 338.82 280.27 336.67 280.88C335.1 281.33 333.42 281.47 331.88 282.02C325.5 284.31 318.64 283.38 312.17 285.08C302.53 287.6 292.68 286.46 282.9 286.7C281 286.856 279.087 286.738 277.22 286.35C275.528 285.963 273.959 285.164 272.652 284.022C271.345 282.881 270.341 281.434 269.73 279.81C268.965 278.164 268.104 276.564 267.15 275.02C266.35 273.61 265.6 274.11 265.24 275.26C264.47 277.71 263.99 280.31 265.52 282.56C267.89 286.03 269.26 290.11 272.36 293.17C278.01 298.74 275.04 304.06 269.18 306.27C264.94 307.87 262.89 309.86 262.82 314.75C262.67 324.67 262.11 334.52 264.72 344.29C265.796 348.607 265.496 353.152 263.86 357.29C263.083 359.276 262.812 361.425 263.072 363.543C263.332 365.66 264.115 367.68 265.35 369.42C266.93 371.81 267.21 374.47 267.62 377.26C269.45 389.9 267.72 402.94 272.16 415.26C273.16 418.06 273.16 421.26 274.84 423.86C275.1 424.27 275.32 425.15 275.12 425.33C273.01 427.2 275.05 428.47 275.78 429.81C276.9 431.86 278.19 433.81 279.49 435.76C282.99 441.01 288.29 443.59 294.02 445.63C298.89 447.37 303.9 448.69 308.61 450.92C311.71 452.38 313.87 455.07 316.95 456.53C318.66 457.34 317.4 458.46 316.4 458.98C314.941 459.616 313.293 459.662 311.8 459.11C306.51 457.54 301.16 458.72 295.85 458.6C286.8 458.4 277.95 460.37 269.01 461.42C267.632 461.566 266.246 461.643 264.86 461.65C260.2 461.71 258.58 460.05 258.97 455.33C259.415 450.573 259.176 445.778 258.26 441.09C257.412 437.033 256.221 433.055 254.7 429.2C254.31 428.2 253.9 427.61 252.7 427.59C249.17 427.68 245.68 426.73 242.59 426.86ZM266.88 205.15L257.33 206C256.66 206.06 255.77 205.86 255.5 206.63C255.23 207.4 256 207.83 256.41 208.37C257.89 210.27 260.55 210.59 262.01 212.47C263.27 214.1 264.86 214.47 266.78 214.35C269.53 214.23 271.29 212.7 271.3 210.17C271.3 205.28 271.2 205.15 266.88 205.15Z" fill="#EE5007"/>
<path d="M266.88 205.148C271.2 205.148 271.3 205.278 271.3 210.148C271.3 212.678 269.53 214.208 266.78 214.328C264.86 214.408 263.27 214.078 262.01 212.448C260.55 210.568 257.89 210.248 256.41 208.348C256 207.808 255.25 207.348 255.5 206.608C255.75 205.868 256.66 206.038 257.33 205.978L266.88 205.148Z" fill="black"/>
</g>
<defs>
<clipPath id="clip0_99_1844">
<rect width="520.98" height="521.25" fill="white"/>
</clipPath>
</defs>
</svg>
