<svg width="240" height="240" viewBox="0 0 240 240" fill="none" xmlns="http://www.w3.org/2000/svg">
<g clip-path="url(#clip0_99_1854)">
<path d="M239.73 113.398V126.818C239.36 127.028 239.51 127.378 239.49 127.678C237.628 156.335 225.535 183.371 205.413 203.86C185.291 224.349 158.479 236.929 129.86 239.308C128.596 239.254 127.332 239.393 126.11 239.718H113.11C112.94 239.398 112.63 239.498 112.37 239.488C108.503 239.274 104.651 238.853 100.83 238.228C77.8128 234.613 56.38 224.269 39.2298 208.498C24.0201 194.738 12.6174 177.287 6.12354 157.832C-0.370285 138.377 -1.73553 117.575 2.15976 97.4383C7.03106 70.7304 21.0203 46.5409 41.7398 28.9983C60.7892 12.391 84.6913 2.37774 109.89 0.448312C121.805 -0.608596 133.812 0.17389 145.49 2.76831C171.456 8.32176 194.791 22.4711 211.72 42.9283C227.708 61.7619 237.361 85.1508 239.31 109.778C239.265 110.999 239.406 112.22 239.73 113.398ZM97.3898 187.798H95.9198C91.5373 187.575 87.145 187.632 82.7698 187.968L69.6898 188.828C65.1598 189.018 60.6298 189.038 56.4698 191.268C54.2298 192.468 52.0998 193.838 51.4698 196.438C51.0397 198.505 51.0602 200.64 51.5298 202.698C51.6565 203.473 52.0037 204.195 52.5298 204.778C55.1137 207.384 58.4379 209.13 62.0498 209.778C65.2098 210.408 68.4498 210.338 71.6398 210.648C76.3998 211.108 81.1798 210.968 85.9498 211.298C93.0198 211.788 100.13 211.718 107.23 211.828C111.62 211.898 116.02 211.828 120.41 211.828C121.85 211.828 123.29 211.878 124.72 211.828C125.48 211.828 126.42 211.668 126.54 210.828C126.66 209.988 126.82 208.668 125.62 208.028C125.379 207.879 125.182 207.668 125.05 207.418C124.75 206.908 124.73 206.508 125.53 206.578C126.247 206.656 126.972 206.553 127.64 206.278C127.967 206.13 128.325 206.061 128.684 206.074C129.043 206.088 129.395 206.186 129.71 206.358C134.241 208.403 139.007 209.88 143.9 210.758C147.231 211.527 150.642 211.893 154.06 211.848C158.69 211.698 163.31 211.928 167.94 211.658C172.16 211.428 176.41 211.778 180.63 211.478C185.32 211.148 187.29 209.058 188.06 204.928C188.333 202.676 188.426 200.405 188.34 198.138C188.353 197.384 188.224 196.635 187.96 195.928C186.5 191.928 183.96 188.648 181.46 185.368C178.96 182.088 175.86 178.778 173.39 175.208C171.321 172.298 168.999 169.578 166.45 167.078C163.493 164.325 160.733 161.368 158.19 158.228C155.652 154.668 153.315 150.969 151.19 147.148C150.96 146.738 150.28 146.368 150.63 145.868C150.98 145.368 151.63 145.718 152.11 145.698C155.46 145.608 158.22 144.048 160.77 142.098C161.96 141.198 161.77 139.788 161.4 138.518C161.351 138.263 161.25 138.02 161.103 137.805C160.956 137.59 160.766 137.408 160.546 137.27C160.325 137.132 160.078 137.041 159.821 137.003C159.563 136.965 159.301 136.98 159.05 137.048C158.65 137.118 158.25 136.948 158.23 136.538C158.23 135.308 157.23 135.108 156.23 134.758C156.921 134.289 157.481 133.652 157.859 132.907C158.237 132.162 158.419 131.333 158.39 130.498C158.29 129.35 158.423 128.194 158.78 127.098C159.482 125.115 159.702 122.993 159.42 120.908C159.307 119.364 158.896 117.856 158.21 116.468C156.89 113.94 154.949 111.79 152.57 110.218C151.02 109.218 149.41 107.988 147.3 107.928C146.3 107.928 145.17 108.038 144.44 107.068C143.89 106.338 143.21 105.748 142.68 105.008C142.15 104.268 141.15 103.368 140.21 103.638C138.868 104.129 137.486 104.504 136.08 104.758C135.59 104.818 135.16 105.138 134.59 104.878C134.382 104.795 134.154 104.775 133.935 104.821C133.716 104.868 133.516 104.978 133.36 105.138C133.12 105.358 132.87 105.588 132.52 105.448C131.708 105.089 130.797 105.019 129.94 105.251C129.083 105.482 128.331 106 127.81 106.718C127.42 107.148 127.07 107.228 126.98 106.488C126.725 104.47 126.725 102.427 126.98 100.408C127.23 98.5083 127.68 96.6183 128.04 94.7383C128.471 92.4154 129.18 90.1526 130.15 87.9983C131.124 85.8186 131.982 83.5888 132.72 81.3183C133.152 80.0433 133.447 78.7259 133.6 77.3883C134.15 72.4483 133.97 67.4683 135.27 62.5783C136.05 59.6783 136.62 56.7283 137.65 53.8883C137.888 52.9773 138.35 52.1404 138.995 51.4539C139.639 50.7674 140.446 50.2533 141.34 49.9583C143.321 49.4094 145.03 48.149 146.14 46.4183C147.027 44.9539 148.1 43.6096 149.33 42.4183C149.998 41.8557 150.502 41.1234 150.79 40.2983C150.97 39.6083 151.36 38.7483 150.31 38.2983C149.47 37.9283 149.39 37.4283 150.03 36.7683C150.336 36.4105 150.623 36.0366 150.89 35.6483C153.11 32.7183 153.2 32.3183 152.61 28.6483C152.51 28.0583 152.18 27.8883 151.61 27.8283C150.87 27.7483 150.17 28.3683 149.61 28.2783C148.27 28.0483 147.44 28.7683 146.49 29.3883C146.22 29.5583 145.97 29.9583 145.54 29.7183C144.54 29.1483 143.68 29.7183 142.87 30.1783C139.8 31.8683 137.32 34.3183 134.74 36.6483C132.44 38.6631 130.971 41.4611 130.62 44.4983C130.466 46.0284 130.089 47.5277 129.5 48.9483C128.33 51.5583 127.56 54.3383 126.23 56.9483C125.04 59.2283 124.16 61.6683 123.23 64.0383C121.9 67.2283 120.64 70.4283 119.47 73.6683C118.395 76.7838 117.478 79.9511 116.72 83.1583C116.417 84.2235 116.177 85.3053 116 86.3983C115.79 88.0783 115.43 89.7183 115.19 91.3983C114.66 95.0183 114.28 98.6583 113.79 102.278C113.238 106.253 113.064 110.271 113.27 114.278L113.43 117.858C113.43 118.198 113.43 118.528 113.08 118.778C109.62 120.978 106.43 123.598 102.93 125.778C100.699 127.19 98.5486 128.726 96.4898 130.378C94.8098 131.708 93.3998 133.308 91.8298 134.748C90.2825 136.053 89.0862 137.723 88.3498 139.608C87.682 141.538 87.344 143.566 87.3498 145.608C87.2146 147.286 87.6325 148.961 88.5398 150.378C88.6773 150.569 88.7513 150.798 88.7513 151.033C88.7513 151.268 88.6773 151.498 88.5398 151.688C87.924 153.071 87.458 154.516 87.1498 155.998C86.8644 157.446 86.6938 158.914 86.6398 160.388C86.5098 164.088 86.4598 167.758 88.2798 171.188C90.5598 175.488 93.3598 179.508 95.2798 183.998C95.8598 185.238 96.6298 186.418 97.3898 187.798Z" fill="#EE5007"/>
<path d="M97.3902 187.798L95.3102 183.968C93.3102 179.478 90.5602 175.458 88.3102 171.158C86.4902 167.728 86.5402 164.058 86.6702 160.358C86.7243 158.884 86.8948 157.416 87.1802 155.968C87.4749 154.484 87.9275 153.036 88.5302 151.648C88.6677 151.457 88.7417 151.228 88.7417 150.993C88.7417 150.758 88.6677 150.529 88.5302 150.338C87.623 148.921 87.205 147.245 87.3402 145.568C87.3344 143.526 87.6725 141.498 88.3402 139.568C89.0767 137.683 90.273 136.012 91.8202 134.708C93.3902 133.268 94.8202 131.708 96.4802 130.338C98.5391 128.685 100.689 127.15 102.92 125.738C106.42 123.578 109.61 120.958 113.07 118.738C113.47 118.488 113.44 118.158 113.42 117.818C113.42 116.618 113.33 115.428 113.26 114.238C113.054 110.231 113.228 106.213 113.78 102.238L115.18 91.3581C115.42 89.6981 115.78 88.0581 115.99 86.3581C116.174 85.2409 116.425 84.1356 116.74 83.0481C117.498 79.8409 118.416 76.6736 119.49 73.5581C120.66 70.3181 121.92 67.1181 123.25 63.9281C124.25 61.5581 125.11 59.1181 126.25 56.8381C127.58 54.2781 128.35 51.4981 129.52 48.8381C130.109 47.4175 130.486 45.9182 130.64 44.3881C130.992 41.3508 132.46 38.5529 134.76 36.5381C137.34 34.2081 139.82 31.7581 142.89 30.0681C143.7 29.6181 144.55 29.0681 145.56 29.6081C145.99 29.8481 146.24 29.4481 146.51 29.2781C147.46 28.6581 148.29 27.9381 149.63 28.1681C150.17 28.2581 150.87 27.6381 151.63 27.7181C152.18 27.7781 152.51 27.9481 152.63 28.5381C153.22 32.1681 153.13 32.5381 150.91 35.5381C150.644 35.9264 150.357 36.3002 150.05 36.6581C149.41 37.3181 149.49 37.8181 150.33 38.1881C151.38 38.6481 150.99 39.5081 150.81 40.1881C150.523 41.0131 150.019 41.7455 149.35 42.3081C148.12 43.4994 147.048 44.8437 146.16 46.3081C145.051 48.0388 143.341 49.2992 141.36 49.8481C140.466 50.143 139.66 50.6572 139.015 51.3437C138.371 52.0301 137.908 52.8671 137.67 53.7781C136.67 56.6181 136.07 59.5681 135.29 62.4681C133.99 67.3581 134.17 72.3381 133.62 77.2781C133.467 78.6156 133.172 79.9331 132.74 81.2081C131.999 83.5162 131.135 85.7828 130.15 87.9981C129.19 90.1864 128.498 92.4832 128.09 94.8381C127.73 96.7181 127.28 98.6081 127.03 100.508C126.775 102.527 126.775 104.569 127.03 106.588C127.12 107.328 127.47 107.248 127.86 106.818C128.382 106.1 129.134 105.581 129.991 105.35C130.848 105.119 131.758 105.189 132.57 105.548C132.92 105.688 133.17 105.458 133.41 105.238C133.566 105.078 133.767 104.968 133.986 104.921C134.205 104.875 134.432 104.895 134.64 104.978C135.21 105.238 135.64 104.918 136.13 104.858C137.536 104.604 138.918 104.229 140.26 103.738C141.2 103.468 142.15 104.318 142.73 105.108C143.31 105.898 143.94 106.438 144.49 107.168C145.22 108.168 146.4 107.998 147.35 108.028C149.46 108.088 151.07 109.268 152.62 110.318C155 111.889 156.941 114.04 158.26 116.568C158.946 117.956 159.357 119.464 159.47 121.008C159.752 123.093 159.533 125.215 158.83 127.198C158.473 128.294 158.341 129.45 158.44 130.598C158.47 131.433 158.287 132.261 157.909 133.006C157.532 133.751 156.971 134.389 156.28 134.858C157.23 135.208 158.19 135.408 158.28 136.638C158.28 137.048 158.7 137.218 159.1 137.148C159.351 137.08 159.614 137.065 159.871 137.103C160.129 137.141 160.375 137.232 160.596 137.37C160.817 137.508 161.006 137.69 161.153 137.905C161.3 138.12 161.401 138.362 161.45 138.618C161.8 139.888 162.01 141.298 160.82 142.198C158.27 144.148 155.51 145.708 152.16 145.798C151.65 145.798 150.97 145.548 150.68 145.968C150.39 146.388 151.01 146.838 151.24 147.248C153.366 151.069 155.703 154.768 158.24 158.328C160.783 161.467 163.543 164.425 166.5 167.178C169.049 169.677 171.372 172.398 173.44 175.308C175.91 178.878 178.87 182.038 181.51 185.468C184.15 188.898 186.51 192.068 188.01 196.028C188.275 196.734 188.404 197.484 188.39 198.238C188.477 200.505 188.383 202.776 188.11 205.028C187.34 209.158 185.37 211.248 180.68 211.578C176.46 211.878 172.21 211.528 167.99 211.758C163.36 212.028 158.74 211.758 154.11 211.948C150.708 211.982 147.314 211.61 144 210.838C139.107 209.96 134.341 208.482 129.81 206.438C129.495 206.265 129.144 206.168 128.785 206.154C128.425 206.14 128.068 206.21 127.74 206.358C127.073 206.632 126.348 206.735 125.63 206.658C124.83 206.588 124.85 206.988 125.15 207.498C125.283 207.748 125.48 207.959 125.72 208.108C126.92 208.748 126.78 209.928 126.64 210.908C126.5 211.888 125.58 211.908 124.82 211.908H120.51H107.33C100.23 211.798 93.1202 211.908 86.0502 211.378C81.2802 211.048 76.5002 211.188 71.7402 210.728C68.5502 210.418 65.3102 210.488 62.1502 209.858C58.5384 209.21 55.2142 207.464 52.6302 204.858C52.1041 204.275 51.757 203.553 51.6302 202.778C51.1607 200.72 51.1402 198.585 51.5702 196.518C52.1602 193.918 54.2902 192.518 56.5702 191.348C60.7302 189.118 65.2602 189.098 69.7902 188.908C74.1502 188.718 78.5102 188.308 82.8702 188.048C87.2455 187.711 91.6377 187.655 96.0202 187.878C96.3502 187.828 96.7802 187.798 97.3902 187.798ZM160.05 189.998L159.98 190.148L160.06 189.998C158.78 187.508 157.54 184.998 156.4 182.438C154.94 179.168 153.06 176.078 151.35 172.918C148.98 168.498 146.79 163.978 144.13 159.708C144.085 159.596 144.018 159.493 143.933 159.407C143.849 159.32 143.748 159.251 143.636 159.204C143.525 159.156 143.405 159.132 143.284 159.131C143.163 159.13 143.042 159.152 142.93 159.198C141.564 159.486 140.163 159.58 138.77 159.478C138.139 159.471 137.515 159.335 136.939 159.077C136.363 158.819 135.846 158.445 135.42 157.978C133.7 156.088 133.81 153.858 134.36 151.748C135.536 146.972 135.1 141.941 133.12 137.438C132.39 135.668 130.89 134.248 130.55 132.258C130.51 132.082 130.41 131.924 130.269 131.812C130.127 131.699 129.951 131.638 129.77 131.638C129.653 131.645 129.543 131.695 129.46 131.778C129.377 131.861 129.327 131.971 129.32 132.088C129.16 133.018 128.91 133.928 128.79 134.858C128.542 136.637 127.781 138.305 126.6 139.658C124.71 141.948 122.83 144.228 122.01 147.238C121.5 149.088 121.01 151.058 119.44 152.448C119.319 152.582 119.227 152.741 119.172 152.913C119.117 153.086 119.099 153.268 119.12 153.448C119.222 154.477 119.042 155.514 118.6 156.448C118.11 157.678 118.42 159.138 117.97 160.288C117.37 161.818 117.24 163.418 116.79 164.958C116.415 166.043 116.415 167.223 116.79 168.308C117.363 169.521 118.204 170.588 119.25 171.428C120.953 172.764 122.991 173.605 125.14 173.858C127.25 174.218 129.41 174.388 131.35 175.408C135.4 177.463 138.7 180.741 140.78 184.778C140.936 185.161 141.175 185.505 141.479 185.785C141.783 186.065 142.146 186.274 142.54 186.398C146.752 187.712 151.045 188.754 155.39 189.518C156.91 189.718 158.44 190.328 160.05 189.998Z" fill="black"/>
<path d="M160.05 189.94C158.44 190.33 156.91 189.72 155.37 189.47C151.024 188.706 146.732 187.663 142.52 186.35C142.125 186.226 141.763 186.017 141.459 185.736C141.155 185.456 140.916 185.113 140.76 184.73C138.679 180.693 135.38 177.415 131.33 175.36C129.39 174.36 127.23 174.17 125.12 173.81C122.971 173.557 120.933 172.716 119.23 171.38C118.184 170.54 117.343 169.473 116.77 168.26C116.395 167.175 116.395 165.995 116.77 164.91C117.22 163.37 117.35 161.77 117.95 160.24C118.4 159.09 118.09 157.63 118.58 156.4C119.022 155.465 119.202 154.428 119.1 153.4C119.079 153.22 119.097 153.038 119.152 152.865C119.207 152.693 119.298 152.534 119.42 152.4C121 151 121.5 149 122 147.19C122.82 144.19 124.7 141.9 126.59 139.61C127.771 138.257 128.532 136.589 128.78 134.81C128.9 133.88 129.15 132.97 129.31 132.04C129.317 131.923 129.367 131.812 129.45 131.73C129.533 131.647 129.643 131.597 129.76 131.59C129.941 131.59 130.117 131.651 130.258 131.764C130.4 131.876 130.499 132.034 130.54 132.21C130.88 134.21 132.38 135.62 133.11 137.39C135.09 141.893 135.526 146.924 134.35 151.7C133.8 153.81 133.69 156.04 135.41 157.93C135.835 158.396 136.352 158.77 136.929 159.028C137.505 159.287 138.128 159.423 138.76 159.43C140.153 159.532 141.553 159.438 142.92 159.15C143.032 159.104 143.152 159.081 143.273 159.082C143.395 159.083 143.514 159.108 143.626 159.156C143.737 159.203 143.838 159.272 143.923 159.358C144.008 159.445 144.075 159.547 144.12 159.66C146.78 163.93 148.97 168.45 151.34 172.87C153.05 176.03 154.93 179.12 156.39 182.39C157.53 184.96 158.77 187.46 160.05 189.95V189.94Z" fill="#EE5007"/>
<path d="M160.06 190L159.98 190.15L160.05 190H160.06Z" fill="#EE5007"/>
</g>
<defs>
<clipPath id="clip0_99_1854">
<rect width="239.73" height="239.72" fill="white"/>
</clipPath>
</defs>
</svg>
